<?xml version="1.0" encoding="utf-8"?>
<!-- Generator: Adobe Illustrator 16.0.3, SVG Export Plug-In . SVG Version: 6.00 Build 0)  -->
<!DOCTYPE svg PUBLIC "-//W3C//DTD SVG 1.1//EN" "http://www.w3.org/Graphics/SVG/1.1/DTD/svg11.dtd">
<svg version="1.1" id="Layer_3_copy" xmlns="http://www.w3.org/2000/svg" xmlns:xlink="http://www.w3.org/1999/xlink" x="0px"
	 y="0px" width="200px" height="200px" viewBox="0 0 200 200" enable-background="new 0 0 200 200" xml:space="preserve">
<g>
	<g>
		<path fill="#E6A324" d="M100,195.766c-52.805,0-95.765-42.96-95.765-95.766c0-52.805,42.96-95.765,95.765-95.765
			s95.765,42.96,95.765,95.765C195.765,152.806,152.805,195.766,100,195.766z"/>
		<path fill="#AF6628" d="M100,8.487c50.46,0,91.513,41.052,91.513,91.513c0,50.461-41.053,91.514-91.513,91.514
			S8.486,150.461,8.486,100C8.486,49.54,49.539,8.487,100,8.487 M100-0.017C44.763-0.017-0.018,44.763-0.018,100
			c0,55.238,44.78,100.018,100.017,100.018c55.238,0,100.017-44.779,100.017-100.018C200.017,44.763,155.237-0.017,100-0.017
			L100-0.017z"/>
	</g>
	<path fill="#FFF200" d="M26.824,168.213L199.262,87.57c-0.624-4.957-1.623-9.842-2.969-14.617l-178.784,83.61
		C20.311,160.657,23.42,164.556,26.824,168.213z"/>
	<g>
		<path fill="#FFF200" d="M180.884,41.153L2.982,124.351c2.214,8.791,5.616,17.233,10.081,25.092L193.68,64.977
			C190.51,56.512,186.21,48.489,180.884,41.153z"/>
	</g>
	<g>
		<path fill="#FFF200" d="M1.75,118.763l175.636-82.138c-1.352-1.653-2.751-3.269-4.211-4.838L0.736,112.43
			C1.004,114.555,1.347,116.666,1.75,118.763z"/>
	</g>
	<g>
		<path fill="#AF6628" d="M100,8.487c50.46,0,91.513,41.052,91.513,91.513c0,50.461-41.053,91.514-91.513,91.514
			S8.486,150.461,8.486,100C8.486,49.54,49.539,8.487,100,8.487 M100-0.017C44.763-0.017-0.018,44.763-0.018,100
			c0,55.238,44.78,100.018,100.017,100.018c55.238,0,100.017-44.779,100.017-100.018C200.017,44.763,155.237-0.017,100-0.017
			L100-0.017z"/>
	</g>
	<g>
		<g>
			<path fill="#E6A324" d="M82.701,189.423c-18.775,0-34.05-15.273-34.05-34.048c0-18.775,15.275-34.05,34.05-34.05h34.6
				c1.581,0,2.867-1.285,2.867-2.864c0-1.583-1.286-2.87-2.867-2.87H82.698c-18.774,0-34.047-15.276-34.047-34.053
				c0-18.772,15.273-34.044,34.047-34.044h34.601c1.581,0,2.867-1.287,2.867-2.87c0-1.58-1.286-2.866-2.867-2.866
				c-0.776,0-1.478,0.291-2.028,0.842c-2.943,2.944-6.858,4.565-11.022,4.565c-4.166,0-8.081-1.622-11.026-4.568
				c-2.944-2.945-4.565-6.86-4.564-11.024c0-4.165,1.623-8.079,4.567-11.023c6.432-6.43,14.982-9.971,24.075-9.971
				c18.774,0,34.048,15.273,34.048,34.046c0,18.775-15.274,34.05-34.049,34.05H82.698c-1.581,0-2.867,1.285-2.867,2.864
				c0,1.583,1.286,2.872,2.867,2.872h34.603c18.774,0,34.049,15.275,34.049,34.051c0,18.773-15.274,34.046-34.049,34.046h-34.6
				c-1.583,0-2.87,1.287-2.87,2.868c0,1.58,1.287,2.866,2.87,2.866c0.777,0,1.479-0.291,2.029-0.841
				c2.945-2.944,6.86-4.565,11.024-4.565c4.166,0,8.081,1.623,11.025,4.568c2.943,2.944,4.564,6.86,4.564,11.024
				c-0.001,4.165-1.623,8.08-4.568,11.023C100.343,185.882,91.793,189.423,82.701,189.423z"/>
			<path fill="#AF6628" d="M117.3,14.83c16.43,0,29.796,13.366,29.796,29.794c0,16.431-13.367,29.798-29.797,29.798H82.698
				c-3.925,0-7.119,3.192-7.119,7.116c0,3.928,3.193,7.124,7.119,7.124h34.603c16.43,0,29.797,13.368,29.797,29.799
				c0,16.429-13.367,29.794-29.797,29.794h-34.6c-3.927,0-7.122,3.194-7.122,7.12c0,3.925,3.195,7.118,7.122,7.118
				c1.901,0,3.689-0.74,5.035-2.086c2.214-2.213,5.116-3.319,8.018-3.32c2.902,0,5.804,1.107,8.018,3.322
				c4.428,4.429,4.427,11.608-0.002,16.035c-5.629,5.627-13.111,8.727-21.068,8.727c-16.431,0-29.798-13.366-29.798-29.796
				c0-16.431,13.367-29.798,29.798-29.798h34.6c3.926,0,7.119-3.192,7.119-7.116c0-3.928-3.193-7.122-7.119-7.122H82.698
				c-16.429,0-29.795-13.369-29.795-29.801c0-16.428,13.366-29.792,29.795-29.792h34.601c3.926,0,7.119-3.195,7.119-7.122
				c0-3.925-3.193-7.118-7.119-7.118c-1.9,0-3.688,0.741-5.034,2.086c-2.214,2.213-5.115,3.32-8.017,3.32
				c-2.902,0-5.804-1.107-8.019-3.322c-4.428-4.429-4.426-11.608,0.002-16.035C101.86,17.928,109.343,14.83,117.3,14.83
				 M117.3,6.326c-10.229,0-19.846,3.983-27.081,11.216c-3.749,3.748-5.813,8.73-5.813,14.03c-0.001,4.252,1.327,8.3,3.787,11.67
				h-5.495c-21.118,0-38.299,17.18-38.299,38.296c0,17.583,11.907,32.437,28.079,36.92c-16.173,4.483-28.079,19.336-28.079,36.917
				c0,21.118,17.182,38.3,38.302,38.3c10.228,0,19.845-3.983,27.08-11.216c3.749-3.747,5.813-8.729,5.814-14.03
				c0-4.252-1.327-8.3-3.787-11.67h5.492c21.119,0,38.301-17.181,38.301-38.298c0-17.583-11.907-32.437-28.082-36.919
				c16.173-4.483,28.08-19.336,28.08-36.917C155.6,23.506,138.418,6.326,117.3,6.326L117.3,6.326z"/>
		</g>
	</g>
	<g>
		<g>
			<path fill="#FFF200" d="M117.301,88.662H82.698c-1.196,0-2.323-0.3-3.314-0.824c1.195,2.259,3.566,3.804,6.293,3.804h34.605
				c7.454,0,14.272,2.759,19.504,7.301C134.319,92.651,126.27,88.662,117.301,88.662z"/>
		</g>
		<g>
			<path fill="#FFF200" d="M85.681,165.476c1.901,0,3.689-0.74,5.035-2.086c3.918-3.916,9.988-4.361,14.402-1.347
				c-0.393-0.574-0.837-1.124-1.347-1.634c-4.426-4.429-11.606-4.429-16.035-0.002c-1.346,1.346-3.134,2.086-5.035,2.086
				c-1.199,0-2.328-0.301-3.32-0.826C80.576,163.929,82.949,165.476,85.681,165.476z"/>
		</g>
		<g>
			<path fill="#FFF200" d="M63.185,104.03c-4.543-5.233-7.303-12.055-7.303-19.513c0-16.428,13.366-29.792,29.795-29.792h34.604
				c3.926,0,7.119-3.195,7.119-7.122c0-2.729-1.546-5.102-3.807-6.295c0.524,0.991,0.824,2.119,0.824,3.316
				c0,3.927-3.193,7.122-7.119,7.122H82.698c-16.429,0-29.795,13.365-29.795,29.792C52.903,90.51,56.893,98.562,63.185,104.03z"/>
		</g>
		<g>
			<path fill="#FFF200" d="M55.882,158.357c0-16.431,13.367-29.798,29.798-29.798h34.603c3.926,0,7.119-3.192,7.119-7.116
				c0-2.731-1.546-5.104-3.807-6.299c0.524,0.991,0.824,2.119,0.824,3.316c0,3.924-3.193,7.116-7.119,7.116h-34.6
				c-16.431,0-29.798,13.367-29.798,29.798c0,8.967,3.987,17.014,10.274,22.48C58.639,172.626,55.882,165.81,55.882,158.357z"/>
		</g>
		<g>
			<path fill="#FFF200" d="M97.864,40.938c-3.017-4.415-2.572-10.485,1.347-14.403c5.632-5.627,13.114-8.726,21.071-8.726
				c7.453,0,14.27,2.756,19.5,7.295c-5.467-6.288-13.516-10.275-22.482-10.275c-7.957,0-15.439,3.099-21.068,8.726
				c-4.428,4.427-4.43,11.606-0.002,16.035C96.74,40.101,97.29,40.546,97.864,40.938z"/>
		</g>
	</g>
	<g>
		<path fill="#FFF200" d="M72.991,53.378c-2.508,0.867-4.868,2.054-7.024,3.522l37.468,17.522h13.864
			c0.22,0,0.438-0.012,0.656-0.017L72.991,53.378z"/>
	</g>
	<g>
		<g>
			<path fill="#FFF200" d="M117.301,88.662H82.698c-1.196,0-2.323-0.3-3.314-0.824c1.195,2.259,3.566,3.804,6.293,3.804h34.605
				c7.454,0,14.272,2.759,19.504,7.301C134.319,92.651,126.27,88.662,117.301,88.662z"/>
		</g>
		<g>
			<path fill="#FFF200" d="M85.681,165.476c1.901,0,3.689-0.74,5.035-2.086c3.918-3.916,9.988-4.361,14.402-1.347
				c-0.393-0.574-0.837-1.124-1.347-1.634c-4.426-4.429-11.606-4.429-16.035-0.002c-1.346,1.346-3.134,2.086-5.035,2.086
				c-1.199,0-2.328-0.301-3.32-0.826C80.576,163.929,82.949,165.476,85.681,165.476z"/>
		</g>
		<g>
			<path fill="#FFF200" d="M63.185,104.03c-4.543-5.233-7.303-12.055-7.303-19.513c0-16.428,13.366-29.792,29.795-29.792h34.604
				c3.926,0,7.119-3.195,7.119-7.122c0-2.729-1.546-5.102-3.807-6.295c0.524,0.991,0.824,2.119,0.824,3.316
				c0,3.927-3.193,7.122-7.119,7.122H82.698c-16.429,0-29.795,13.365-29.795,29.792C52.903,90.51,56.893,98.562,63.185,104.03z"/>
		</g>
		<g>
			<path fill="#FFF200" d="M55.882,158.357c0-16.431,13.367-29.798,29.798-29.798h34.603c3.926,0,7.119-3.192,7.119-7.116
				c0-2.731-1.546-5.104-3.807-6.299c0.524,0.991,0.824,2.119,0.824,3.316c0,3.924-3.193,7.116-7.119,7.116h-34.6
				c-16.431,0-29.798,13.367-29.798,29.798c0,8.967,3.987,17.014,10.274,22.48C58.639,172.626,55.882,165.81,55.882,158.357z"/>
		</g>
		<g>
			<path fill="#FFF200" d="M97.864,40.938c-3.017-4.415-2.572-10.485,1.347-14.403c5.632-5.627,13.114-8.726,21.071-8.726
				c7.453,0,14.27,2.756,19.5,7.295c-5.467-6.288-13.516-10.275-22.482-10.275c-7.957,0-15.439,3.099-21.068,8.726
				c-4.428,4.427-4.43,11.606-0.002,16.035C96.74,40.101,97.29,40.546,97.864,40.938z"/>
		</g>
	</g>
	<g>
		<path fill="#FFF200" d="M117.301,88.662H82.698c-3.925,0-7.119-3.196-7.119-7.124c0-3.923,3.193-7.116,7.119-7.116h7.556
			L61.271,60.868c-5.175,5.362-8.368,12.648-8.368,20.67c0,1.866,0.181,3.69,0.51,5.462l52.044,24.338h11.844
			c3.926,0,7.119,3.194,7.119,7.122c0,0.569-0.074,1.121-0.201,1.651l20.645,9.655c1.437-3.489,2.234-7.306,2.234-11.307
			c0-8.705-3.753-16.549-9.724-22.002l-16.085-7.522C119.983,88.761,118.654,88.662,117.301,88.662z"/>
	</g>
	<g>
		<g>
			<path fill="#FFF200" d="M116.231,125.577h-33.53c-0.221,0-0.439,0.012-0.659,0.017l44.966,21.029
				c5.408-1.869,10.112-5.252,13.608-9.643L116.231,125.577z"/>
		</g>
		<g>
			<path fill="#FFF200" d="M82.698,111.339h3.087L58.164,98.421C63.544,106.217,72.532,111.339,82.698,111.339z"/>
		</g>
	</g>
</g>
</svg>
