<?xml version="1.0" encoding="utf-8"?>
<!-- Generator: Adobe Illustrator 16.0.3, SVG Export Plug-In . SVG Version: 6.00 Build 0)  -->
<!DOCTYPE svg PUBLIC "-//W3C//DTD SVG 1.1//EN" "http://www.w3.org/Graphics/SVG/1.1/DTD/svg11.dtd">
<svg version="1.1" id="Layer_9" xmlns="http://www.w3.org/2000/svg" xmlns:xlink="http://www.w3.org/1999/xlink" x="0px" y="0px"
	 width="94.195px" height="170.34px" viewBox="0 0 94.195 170.34" enable-background="new 0 0 94.195 170.34" xml:space="preserve">
<g>
	<path fill="#FFFFFF" d="M29.799,170.34C13.368,170.34,0,156.974,0,140.545c0-16.431,13.367-29.799,29.798-29.799h34.6
		c3.926,0,7.119-3.191,7.119-7.115c0-3.928-3.193-7.123-7.119-7.123H29.795C13.366,96.508,0,83.14,0,66.708
		C0,50.28,13.366,36.915,29.795,36.915h34.601c3.926,0,7.119-3.194,7.119-7.121c0-3.925-3.193-7.117-7.119-7.117
		c-1.9,0-3.688,0.741-5.034,2.086c-4.428,4.428-11.608,4.428-16.035-0.002c-4.428-4.429-4.426-11.607,0.002-16.035
		C48.958,3.099,56.44,0,64.397,0c16.43,0,29.796,13.365,29.796,29.794c0,16.431-13.367,29.798-29.797,29.798H29.795
		c-3.925,0-7.119,3.192-7.119,7.116c0,3.928,3.193,7.123,7.119,7.123h34.603c16.43,0,29.797,13.368,29.797,29.8
		c0,16.428-13.367,29.793-29.797,29.793h-34.6c-3.927,0-7.122,3.194-7.122,7.121c0,3.925,3.195,7.117,7.122,7.117
		c1.901,0,3.689-0.74,5.036-2.086c4.428-4.427,11.608-4.427,16.035,0.004c4.428,4.429,4.426,11.608-0.003,16.035
		C45.237,167.241,37.755,170.34,29.799,170.34z"/>
</g>
</svg>
