<?xml version="1.0" encoding="utf-8"?>
<!-- Generator: Adobe Illustrator 16.0.3, SVG Export Plug-In . SVG Version: 6.00 Build 0)  -->
<!DOCTYPE svg PUBLIC "-//W3C//DTD SVG 1.1//EN" "http://www.w3.org/Graphics/SVG/1.1/DTD/svg11.dtd">
<svg version="1.1" id="Layer_1" xmlns="http://www.w3.org/2000/svg" xmlns:xlink="http://www.w3.org/1999/xlink" x="0px" y="0px"
	 width="100px" height="100px" viewBox="0 0 100 100" enable-background="new 0 0 100 100" xml:space="preserve">
<g>
	<path fill="#FFFFFF" d="M24.093,25.909C10.807,25.909,0,36.714,0,50c0,13.285,10.807,24.091,24.093,24.091
		c13.284,0,24.091-10.806,24.091-24.091C48.184,36.714,37.377,25.909,24.093,25.909z"/>
	<path fill="#FFFFFF" d="M75.906,25.909C62.62,25.909,51.813,36.714,51.813,50c0,13.285,10.807,24.091,24.093,24.091
		C89.191,74.091,100,63.285,100,50C100,36.714,89.191,25.909,75.906,25.909z M75.906,68.022c-9.938,0-18.022-8.085-18.022-18.022
		s8.085-18.022,18.022-18.022S93.928,40.063,93.928,50S85.844,68.022,75.906,68.022z"/>
</g>
</svg>
