<?xml version="1.0" encoding="utf-8"?>
<!-- Generator: Adobe Illustrator 16.0.3, SVG Export Plug-In . SVG Version: 6.00 Build 0)  -->
<!DOCTYPE svg PUBLIC "-//W3C//DTD SVG 1.1//EN" "http://www.w3.org/Graphics/SVG/1.1/DTD/svg11.dtd">
<svg version="1.1" id="Layer_1" xmlns="http://www.w3.org/2000/svg" xmlns:xlink="http://www.w3.org/1999/xlink" x="0px" y="0px"
	 width="100px" height="100px" viewBox="0 0 100 100" enable-background="new 0 0 100 100" xml:space="preserve">
<path fill="#FFFFFF" d="M87.676,27.375c-0.006,0.021-6.794,22.307-13.69,27.704c0,0-1.492-35.39-22.786-55.039
	c0-0.002,0-0.002,0-0.002c0.911,0.854-0.062,5.901-0.195,6.895c-0.684,5.103-2.488,10.409-5.603,14.546
	c-2.032,2.698-4.749,5.057-7.761,6.595c-2.781,1.417-5.865,2.09-8.678,3.429c-2.484,1.181-4.846,2.766-7.071,4.371
	c-4.64,3.345-8.668,7.454-11.439,12.489C7.877,53.04,6.835,58.758,6.967,64.079C9.796,79.8,18.415,92.864,29.961,99.919
	c-0.328-0.601-8.904-16.614,4.831-30.74c0,0,6.499-6.751,7.099-15.6c0,0,13.348,12.086,10.499,25.391c0,0,8.549-3.192,10.349-10.242
	c0,0,9.128,9.698,6.293,31.234c14.238-8.684,24.012-26.544,24.012-47.183C93.043,43.57,91.095,34.913,87.676,27.375z"/>
</svg>
