<?xml version="1.0" encoding="utf-8"?>
<!-- Generator: Adobe Illustrator 16.0.3, SVG Export Plug-In . SVG Version: 6.00 Build 0)  -->
<!DOCTYPE svg PUBLIC "-//W3C//DTD SVG 1.1//EN" "http://www.w3.org/Graphics/SVG/1.1/DTD/svg11.dtd">
<svg version="1.1" id="Layer_1" xmlns="http://www.w3.org/2000/svg" xmlns:xlink="http://www.w3.org/1999/xlink" x="0px" y="0px"
	 width="100px" height="100px" viewBox="0 0 100 100" enable-background="new 0 0 100 100" xml:space="preserve">
<path fill="#FFFFFF" d="M98.578,39.558L51.775,8.317c-1.074-0.718-2.473-0.718-3.551,0L1.423,39.558
	c-1.171,0.782-1.695,2.241-1.285,3.588c0.408,1.349,1.652,2.271,3.061,2.271h7.943v43.605c0,1.766,1.432,3.199,3.197,3.199h21.269
	V68.899c0-7.95,6.444-14.393,14.393-14.393c7.947,0,14.393,6.442,14.393,14.393v23.321h21.269c1.766,0,3.196-1.434,3.196-3.199
	V45.417h7.943c1.408,0,2.65-0.921,3.06-2.271C100.271,41.798,99.747,40.34,98.578,39.558z"/>
</svg>
