<?xml version="1.0" encoding="utf-8"?>
<!-- Generator: Adobe Illustrator 16.0.3, SVG Export Plug-In . SVG Version: 6.00 Build 0)  -->
<!DOCTYPE svg PUBLIC "-//W3C//DTD SVG 1.1//EN" "http://www.w3.org/Graphics/SVG/1.1/DTD/svg11.dtd">
<svg version="1.1" id="Layer_1" xmlns="http://www.w3.org/2000/svg" xmlns:xlink="http://www.w3.org/1999/xlink" x="0px" y="0px"
	 width="100px" height="100px" viewBox="0 0 100 100" enable-background="new 0 0 100 100" xml:space="preserve">
<path fill="#FFFFFF" d="M87.479,37.498h-24.98V12.521c0-6.905-5.598-12.502-12.499-12.502c-6.905,0-12.502,5.597-12.502,12.502
	v24.978H12.521C5.615,37.498,0.019,43.095,0.019,50c0,6.904,5.597,12.502,12.502,12.502h24.978v24.978
	c0,6.904,5.597,12.502,12.502,12.502c6.901,0,12.499-5.598,12.499-12.502V62.502h24.98c6.904,0,12.502-5.598,12.502-12.502
	C99.981,43.095,94.384,37.498,87.479,37.498z"/>
</svg>
