<?xml version="1.0" encoding="utf-8"?>
<!-- Generator: Adobe Illustrator 16.0.3, SVG Export Plug-In . SVG Version: 6.00 Build 0)  -->
<!DOCTYPE svg PUBLIC "-//W3C//DTD SVG 1.1//EN" "http://www.w3.org/Graphics/SVG/1.1/DTD/svg11.dtd">
<svg version="1.1" xmlns="http://www.w3.org/2000/svg" xmlns:xlink="http://www.w3.org/1999/xlink" x="0px" y="0px" width="1920px"
	 height="1080px" viewBox="0 0 1920 1080" enable-background="new 0 0 1920 1080" xml:space="preserve">
<g id="Layer_3_copy_3">
	<rect x="0.002" fill="#B76B91" width="1919.998" height="1080"/>
</g>
<g id="Layer_3_copy_4">
	<path fill="#549A94" d="M1920,515.341c0-6.799-5.51-12.309-12.309-12.309c-6.797,0-12.307,5.51-12.307,12.309v30.764
		c0,6.799-5.51,12.311-12.309,12.311c-6.797,0-12.307-5.512-12.307-12.311v-61.539c0-6.799-5.51-12.309-12.309-12.309
		c-6.797,0-12.307,5.51-12.307,12.309v104.623c0,10.199-8.265,18.465-18.463,18.465c-10.195,0-18.46-8.266-18.46-18.465v-30.771
		c0-10.199-8.265-18.465-18.463-18.465c-10.195,0-18.46,8.266-18.46,18.465V601.5c0,13.598-11.02,24.619-24.617,24.619
		c-13.594,0-24.613-11.021-24.613-24.619V496.877c0-6.799-5.51-12.31-12.309-12.31c-6.797,0-12.307,5.511-12.307,12.31v61.539
		c0,13.598-11.02,24.619-24.617,24.619c-13.594,0-24.613-11.021-24.613-24.619v-80.008c0-10.198-8.265-18.465-18.463-18.465
		c-10.195,0-18.46,8.267-18.46,18.465v80.008c0,6.799-5.51,12.311-12.309,12.311c-6.797,0-12.307-5.512-12.307-12.311v-43.075
		c0-13.598-11.02-24.619-24.617-24.619c-13.594,0-24.613,11.021-24.613,24.619v73.848c0,6.799-5.51,12.311-12.309,12.311
		c-6.797,0-12.307-5.512-12.307-12.311v-30.771c0-10.199-8.265-18.465-18.463-18.465c-10.195,0-18.46,8.266-18.46,18.465v90.641
		c0,13.598-11.02,24.619-24.617,24.619c-13.594,0-24.613-11.021-24.613-24.619V515.337c0-10.198-8.265-18.465-18.463-18.465
		c-10.195,0-18.46,8.267-18.46,18.465v73.854c0,10.197-8.265,18.463-18.463,18.463c-10.195,0-18.46-8.266-18.46-18.463V466.097
		c0-6.799-5.51-12.31-12.309-12.31c-6.797,0-12.307,5.511-12.307,12.31v49.242c0,6.799-5.51,12.31-12.309,12.31
		c-6.797,0-12.307-5.511-12.307-12.31v-18.468c0-10.199-8.265-18.465-18.463-18.465c-10.195,0-18.46,8.266-18.46,18.465v49.234
		c0,6.799-5.51,12.311-12.309,12.311c-6.797,0-12.307-5.512-12.307-12.311v-99.498c0-13.598-11.02-24.619-24.617-24.619
		c-13.594,0-24.613,11.021-24.613,24.619v99.5c0,13.598-11.02,24.619-24.617,24.619c-13.594,0-24.613-11.021-24.613-24.619v-55.392
		c0-6.799-5.51-12.309-12.309-12.309c-6.797,0-12.307,5.51-12.307,12.309v98.474c0,10.199-8.265,18.465-18.463,18.465
		c-10.195,0-18.46-8.266-18.46-18.465V446.608c0-13.598-11.02-24.619-24.617-24.619c-13.594,0-24.613,11.021-24.613,24.619v93.351
		v0.04c0,6.799-5.51,12.309-12.309,12.309s-12.31-5.51-12.31-12.308c0-6.796-5.511-12.309-12.307-12.309s-12.31,5.513-12.31,12.309
		v36.924c0,6.798-5.51,12.308-12.306,12.308c-6.8,0-12.31-5.51-12.31-12.308v-73.846c0-6.799-5.51-12.31-12.307-12.31
		c-6.799,0-12.309,5.511-12.309,12.31V540c0,6.798-5.51,12.308-12.307,12.308c-6.799,0-12.309-5.51-12.309-12.308
		c0-6.796-5.511-12.309-12.307-12.309v-0.001c-6.799,0-12.309,5.511-12.309,12.31v93.351c0,13.598-11.02,24.619-24.613,24.619
		c-13.598,0-24.617-11.021-24.617-24.619V490.769c0-10.199-8.265-18.465-18.46-18.465c-10.198,0-18.463,8.266-18.463,18.465v98.475
		c0,6.799-5.51,12.309-12.307,12.309c-6.799,0-12.309-5.51-12.309-12.309v-55.392c0-13.598-11.02-24.619-24.613-24.619
		c-13.598,0-24.617,11.021-24.617,24.619v99.499c0,13.598-11.02,24.619-24.613,24.619c-13.598,0-24.617-11.021-24.617-24.619
		v-99.498c0-6.799-5.51-12.311-12.307-12.311c-6.799,0-12.309,5.512-12.309,12.311v49.234c0,10.199-8.265,18.465-18.46,18.465
		c-10.198,0-18.463-8.266-18.463-18.465v-18.468c0-6.799-5.51-12.31-12.307-12.31c-6.799,0-12.309,5.511-12.309,12.31v49.242
		c0,6.799-5.51,12.31-12.307,12.31c-6.799,0-12.309-5.511-12.309-12.31V490.768c0-10.197-8.265-18.463-18.46-18.463
		c-10.198,0-18.463,8.266-18.463,18.463v73.854c0,10.198-8.265,18.465-18.46,18.465c-10.198,0-18.463-8.267-18.463-18.465V430.899
		c0-13.598-11.02-24.619-24.613-24.619c-13.598,0-24.617,11.021-24.617,24.619v90.642c0,10.198-8.265,18.465-18.46,18.465
		c-10.198,0-18.463-8.267-18.463-18.465V490.77c0-6.799-5.51-12.311-12.307-12.311c-6.799,0-12.309,5.512-12.309,12.311v73.848
		c0,13.598-11.02,24.619-24.613,24.619c-13.598,0-24.617-11.021-24.617-24.619v-43.075c0-6.799-5.51-12.31-12.307-12.31
		c-6.799,0-12.309,5.511-12.309,12.31v80.009c0,10.198-8.265,18.465-18.46,18.465c-10.198,0-18.463-8.267-18.463-18.465v-80.009
		c0-13.598-11.02-24.619-24.613-24.619c-13.598,0-24.617,11.021-24.617,24.619v61.539c0,6.799-5.51,12.31-12.307,12.31
		c-6.799,0-12.309-5.511-12.309-12.31V478.459c0-13.598-11.02-24.619-24.613-24.619c-13.598,0-24.617,11.021-24.617,24.619v43.083
		c0,10.198-8.265,18.465-18.46,18.465c-10.198,0-18.463-8.267-18.463-18.465v-30.773c0-10.199-8.265-18.465-18.46-18.465
		c-10.198,0-18.463,8.266-18.463,18.465v104.623c0,6.799-5.51,12.309-12.307,12.309c-6.799,0-12.309-5.51-12.309-12.309v-61.539
		c0-6.799-5.51-12.311-12.307-12.311c-6.799,0-12.309,5.512-12.309,12.311v30.765c0,6.799-5.51,12.309-12.307,12.309
		c-6.799,0-12.309-5.51-12.309-12.309L0.002,1080H1920V515.341z"/>
</g>
<g id="Layer_3_copy_5">
	
		<path fill="none" stroke="#363D44" stroke-width="5.6693" stroke-linecap="round" stroke-linejoin="round" stroke-miterlimit="10" d="
		M0.008,564.617c0,6.799,5.51,12.309,12.309,12.309c6.797,0,12.307-5.51,12.307-12.309v-30.765c0-6.799,5.51-12.311,12.309-12.311
		c6.797,0,12.307,5.512,12.307,12.311v61.539c0,6.799,5.51,12.309,12.309,12.309c6.797,0,12.307-5.51,12.307-12.309V490.769
		c0-10.199,8.265-18.465,18.463-18.465c10.195,0,18.46,8.266,18.46,18.465v30.773c0,10.198,8.265,18.465,18.463,18.465
		c10.195,0,18.46-8.267,18.46-18.465v-43.083c0-13.598,11.02-24.619,24.617-24.619c13.594,0,24.613,11.021,24.613,24.619v104.622
		c0,6.799,5.51,12.31,12.309,12.31c6.797,0,12.307-5.511,12.307-12.31v-61.539c0-13.598,11.02-24.619,24.617-24.619
		c13.594,0,24.613,11.021,24.613,24.619v80.009c0,10.198,8.265,18.465,18.463,18.465c10.195,0,18.46-8.267,18.46-18.465v-80.009
		c0-6.799,5.51-12.31,12.309-12.31c6.797,0,12.307,5.511,12.307,12.31v43.075c0,13.598,11.02,24.619,24.617,24.619
		c13.594,0,24.613-11.021,24.613-24.619V490.77c0-6.799,5.51-12.311,12.309-12.311c6.797,0,12.307,5.512,12.307,12.311v30.772
		c0,10.198,8.265,18.465,18.463,18.465c10.195,0,18.46-8.267,18.46-18.465v-90.642c0-13.598,11.02-24.619,24.617-24.619
		c13.594,0,24.613,11.021,24.613,24.619v133.722c0,10.198,8.265,18.465,18.463,18.465c10.195,0,18.46-8.267,18.46-18.465v-73.854
		c0-10.197,8.265-18.463,18.463-18.463c10.195,0,18.46,8.266,18.46,18.463v123.094c0,6.799,5.51,12.31,12.309,12.31
		c6.797,0,12.307-5.511,12.307-12.31v-49.242c0-6.799,5.51-12.31,12.309-12.31c6.797,0,12.307,5.511,12.307,12.31v18.468
		c0,10.199,8.265,18.465,18.463,18.465c10.195,0,18.46-8.266,18.46-18.465v-49.234c0-6.799,5.51-12.311,12.309-12.311
		c6.797,0,12.307,5.512,12.307,12.311v99.498c0,13.598,11.02,24.619,24.617,24.619c13.594,0,24.613-11.021,24.613-24.619v-99.499
		c0-13.598,11.02-24.619,24.617-24.619c13.594,0,24.613,11.021,24.613,24.619v55.392c0,6.799,5.51,12.309,12.309,12.309
		c6.797,0,12.307-5.51,12.307-12.309v-98.475c0-10.199,8.265-18.465,18.463-18.465c10.195,0,18.46,8.266,18.46,18.465v142.582
		c0,13.598,11.02,24.619,24.617,24.619c13.594,0,24.613-11.021,24.613-24.619V540c0-6.799,5.51-12.31,12.309-12.31v0.001
		c6.796,0,12.307,5.513,12.307,12.309c0,6.798,5.51,12.308,12.309,12.308c6.797,0,12.307-5.51,12.307-12.308v-36.922
		c0-6.799,5.51-12.31,12.309-12.31c6.797,0,12.307,5.511,12.307,12.31v73.846c0,6.798,5.51,12.308,12.31,12.308
		c6.796,0,12.306-5.51,12.306-12.308V540c0-6.796,5.514-12.309,12.31-12.309s12.307,5.513,12.307,12.309
		c0,6.798,5.511,12.308,12.31,12.308s12.309-5.51,12.309-12.309v-0.04v-93.351c0-13.598,11.02-24.619,24.613-24.619
		c13.598,0,24.617,11.021,24.617,24.619v142.582c0,10.199,8.265,18.465,18.46,18.465c10.198,0,18.463-8.266,18.463-18.465v-98.474
		c0-6.799,5.51-12.309,12.307-12.309c6.799,0,12.309,5.51,12.309,12.309v55.392c0,13.598,11.02,24.619,24.613,24.619
		c13.598,0,24.617-11.021,24.617-24.619v-99.5c0-13.598,11.02-24.619,24.613-24.619c13.598,0,24.617,11.021,24.617,24.619v99.498
		c0,6.799,5.51,12.311,12.307,12.311c6.799,0,12.309-5.512,12.309-12.311v-49.234c0-10.199,8.265-18.465,18.46-18.465
		c10.198,0,18.463,8.266,18.463,18.465v18.468c0,6.799,5.51,12.31,12.307,12.31c6.799,0,12.309-5.511,12.309-12.31v-49.242
		c0-6.799,5.51-12.31,12.307-12.31c6.799,0,12.309,5.511,12.309,12.31v123.094c0,10.197,8.265,18.463,18.46,18.463
		c10.198,0,18.463-8.266,18.463-18.463v-73.854c0-10.198,8.265-18.465,18.46-18.465c10.198,0,18.463,8.267,18.463,18.465v133.721
		c0,13.598,11.02,24.619,24.613,24.619c13.598,0,24.617-11.021,24.617-24.619v-90.641c0-10.199,8.265-18.465,18.46-18.465
		c10.198,0,18.463,8.266,18.463,18.465v30.771c0,6.799,5.51,12.311,12.307,12.311c6.799,0,12.309-5.512,12.309-12.311v-73.848
		c0-13.598,11.02-24.619,24.613-24.619c13.598,0,24.617,11.021,24.617,24.619v43.075c0,6.799,5.51,12.311,12.307,12.311
		c6.799,0,12.309-5.512,12.309-12.311v-80.008c0-10.198,8.265-18.465,18.46-18.465c10.198,0,18.463,8.267,18.463,18.465v80.008
		c0,13.598,11.02,24.619,24.613,24.619c13.598,0,24.617-11.021,24.617-24.619v-61.539c0-6.799,5.51-12.31,12.307-12.31
		c6.799,0,12.309,5.511,12.309,12.31V601.5c0,13.598,11.02,24.619,24.613,24.619c13.598,0,24.617-11.021,24.617-24.619v-43.082
		c0-10.199,8.265-18.465,18.46-18.465c10.198,0,18.463,8.266,18.463,18.465v30.771c0,10.199,8.265,18.465,18.46,18.465
		c10.198,0,18.463-8.266,18.463-18.465V484.567c0-6.799,5.51-12.309,12.307-12.309c6.799,0,12.309,5.51,12.309,12.309v61.539
		c0,6.799,5.51,12.311,12.307,12.311c6.799,0,12.309-5.512,12.309-12.311v-30.764c0-6.799,5.51-12.309,12.307-12.309
		c6.799,0,12.309,5.51,12.309,12.309"/>
</g>
</svg>
