<?xml version="1.0" encoding="utf-8"?>
<!-- Generator: Adobe Illustrator 16.0.3, SVG Export Plug-In . SVG Version: 6.00 Build 0)  -->
<!DOCTYPE svg PUBLIC "-//W3C//DTD SVG 1.1//EN" "http://www.w3.org/Graphics/SVG/1.1/DTD/svg11.dtd">
<svg version="1.1" id="Layer_1" xmlns="http://www.w3.org/2000/svg" xmlns:xlink="http://www.w3.org/1999/xlink" x="0px" y="0px"
	 width="100px" height="100px" viewBox="0 0 100 100" enable-background="new 0 0 100 100" xml:space="preserve">
<circle fill="#363D44" cx="50" cy="50" r="50"/>
<path fill="#549A94" d="M41.423,55.415c-6.244-3.116-10.245-9.535-10.245-16.525c0-10.188,8.288-18.475,18.475-18.475
	c10.187,0,18.475,8.288,18.475,18.475c0,6.99-4,13.409-10.244,16.525c10.393,0.044,19.909,7.795,24.87,20.253
	c5.508-7.092,8.799-15.992,8.799-25.668c0-23.141-18.758-41.899-41.899-41.899C26.512,8.101,7.754,26.859,7.754,50
	c0,9.676,3.291,18.576,8.798,25.668C21.514,63.21,31.031,55.46,41.423,55.415z"/>
</svg>
